<svg width="40" height="39" viewBox="0 0 40 39" fill="none" xmlns="http://www.w3.org/2000/svg">
<path d="M26.7033 19.455L20.007 25.8485L38.3948 38.2728C39.5118 39.0275 40.5063 38.0778 39.7158 37.0115L26.7033 19.455L23.355 22.652L20.0068 25.8489" fill="#F95000"/>
<path d="M13.3103 19.4538L20.0067 13.0603L1.6188 0.636088C0.501789 -0.118675 -0.49272 0.831026 0.297792 1.89736L13.3103 19.4538L16.6586 16.2568L20.0068 13.06" fill="#F95000"/>
<path d="M20.0068 25.8343L13.3105 19.4408L0.297961 36.9971C-0.492551 38.0636 0.502135 39.0131 1.61897 38.2584L20.0068 25.8343L16.6586 22.6375L13.3103 19.4406" fill="#F95000"/>
<path d="M20.0068 13.0481L26.7031 19.4416L39.7159 1.88533C40.5064 0.818829 39.5117 -0.130705 38.3948 0.624057L20.0068 13.0481L23.3552 16.245L26.7035 19.4418" fill="#F95000"/>
<path d="M19.9944 25.9506L26.7549 19.4958L19.9944 13.0411L13.2338 19.4958L19.9944 25.9506Z" fill="white"/>
</svg>
