<svg width="183" height="38" viewBox="0 0 183 38" fill="none" xmlns="http://www.w3.org/2000/svg">
<g clip-path="url(#clip0_1_51)">
<path d="M39.1718 20.795H5.69264V0H0V29.1739C0 33.8966 3.26388 37.1719 7.9697 37.1719H39.1718V20.795Z" fill="#FFC6A2"/>
<path d="M80.6682 0H49.9865C45.2046 0 41.9407 3.27546 41.9407 7.99816V29.1739C41.9407 33.8966 45.2046 37.1719 49.9865 37.1719H80.6682C85.45 37.1719 88.6379 33.8964 88.6379 29.1739V7.99816C88.6379 3.27546 85.45 0 80.6682 0ZM82.9452 31.4194H47.6335V20.795H82.9452V31.4194Z" fill="#FFC6A2"/>
<path d="M130.583 20.795H97.1796V0H91.4109V29.1739C91.4109 33.8966 94.6748 37.1719 99.4566 37.1719H130.583L130.583 20.795Z" fill="#FFC6A2"/>
<path d="M176.548 37.1719H183L175.249 5.94139C174.186 2.13289 171.302 0 167.355 0H147.816C143.793 0 140.985 2.13289 139.922 5.94139L132.095 37.1719H138.547L139.764 32.0756H175.33L176.548 37.1719ZM140.681 28.238L142.46 20.7948H172.635L174.413 28.238H140.681Z" fill="#FFC6A2"/>
</g>
<defs>
<clipPath id="clip0_1_51">
<rect width="183" height="37.1719" fill="white"/>
</clipPath>
</defs>
</svg>
